<?xml version="1.0" encoding="UTF-8" standalone="no"?> <svg width="48" height="48" viewBox="0 0 48 48" fill="none" xmlns="http://www.w3.org/2000/svg">
<path d="M20.5359 6.99982L4.36988 34.9998C4.01881 35.6079 3.83399 36.2977 3.83398 36.9998C3.83398 37.7019 4.0188 38.3917 4.36986 38.9998C4.72092 39.6079 5.22586 40.1128 5.83392 40.4639C6.44198 40.815 7.13174 40.9998 7.83388 40.9998H40.1659C40.868 40.9998 41.5578 40.815 42.1658 40.4639C42.7739 40.1128 43.2788 39.6079 43.6299 38.9998C43.981 38.3917 44.1658 37.7019 44.1658 36.9998C44.1658 36.2977 43.981 35.6079 43.6299 34.9998L27.4639 6.99982C27.1128 6.39179 26.6079 5.88689 25.9998 5.53585C25.3917 5.18481 24.702 5 23.9999 5C23.2978 5 22.608 5.18481 22 5.53585C21.3919 5.88689 20.887 6.39179 20.5359 6.99982V6.99982Z" fill="#FAC100"/>
<path d="M34.9999 37.0001C30.1305 37.0005 25.3588 35.6335 21.2284 33.0548C17.0979 30.476 13.7745 26.7891 11.6369 22.4141L4.36988 35.0001C4.01881 35.6081 3.83399 36.2979 3.83398 37C3.83398 37.7022 4.0188 38.3919 4.36986 39C4.72092 39.6081 5.22586 40.113 5.83392 40.4641C6.44198 40.8152 7.13174 41 7.83388 41.0001H40.1659C40.8251 40.9997 41.474 40.8364 42.0548 40.5247C42.6357 40.213 43.1305 39.7627 43.4953 39.2136C43.8601 38.6645 44.0835 38.0338 44.1457 37.3776C44.2079 36.7213 44.107 36.0599 43.8519 35.4521C41.0138 36.4792 38.0181 37.003 34.9999 37.0001V37.0001Z" fill="#FF9500"/>
<path d="M23.2141 14H24.7861C25.0058 13.9995 25.2233 14.0442 25.4249 14.1314C25.6266 14.2186 25.8081 14.3464 25.9582 14.5068C26.1084 14.6673 26.2238 14.8569 26.2974 15.0639C26.371 15.2709 26.4012 15.4908 26.3861 15.71L25.6001 27.5C25.5747 27.9068 25.3949 28.2885 25.0976 28.5673C24.8002 28.846 24.4077 29.0008 24.0001 29V29C23.5926 29.0008 23.2 28.846 22.9027 28.5673C22.6054 28.2885 22.4256 27.9068 22.4001 27.5L21.6141 15.71C21.599 15.4908 21.6292 15.2709 21.7028 15.0639C21.7765 14.8569 21.8919 14.6673 22.042 14.5068C22.1921 14.3464 22.3737 14.2186 22.5753 14.1314C22.777 14.0442 22.9944 13.9995 23.2141 14V14Z" fill="#2D4A60"/>
<path d="M24 37C25.3807 37 26.5 35.8807 26.5 34.5C26.5 33.1193 25.3807 32 24 32C22.6193 32 21.5 33.1193 21.5 34.5C21.5 35.8807 22.6193 37 24 37Z" fill="#2D4A60"/>
<path d="M24 37C24.4875 36.9998 24.9643 36.857 25.3717 36.5892C25.7791 36.3215 26.0994 35.9405 26.293 35.493C24.7237 34.934 23.2123 34.224 21.78 33.373C21.5985 33.7212 21.5026 34.1075 21.5 34.5C21.5 35.1631 21.7634 35.799 22.2322 36.2678C22.7011 36.7367 23.337 37 24 37V37Z" fill="#263F52"/>
<path d="M40.166 41.9998H7.83395C6.95594 42.0005 6.09323 41.7699 5.33259 41.3314C4.57196 40.8928 3.94022 40.2617 3.50092 39.5015C3.06162 38.7412 2.83025 37.8788 2.83008 37.0007C2.82991 36.1227 3.06095 35.2602 3.49995 34.4998L19.67 6.49978C20.1088 5.73974 20.74 5.10861 21.5001 4.66981C22.2601 4.23101 23.1223 4 24 4C24.8776 4 25.7398 4.23101 26.4998 4.66981C27.2599 5.10861 27.8911 5.73974 28.33 6.49978L44.5 34.4998C44.9388 35.2599 45.1698 36.1221 45.1698 36.9997C45.1698 37.8774 44.9388 38.7396 44.5 39.4997C44.0612 40.2598 43.43 40.891 42.6699 41.3299C41.9098 41.7687 41.0476 41.9998 40.1699 41.9998H40.166ZM21.4 7.49978L5.23595 35.4998C4.97257 35.956 4.83394 36.4735 4.83403 37.0003C4.83411 37.527 4.9729 38.0445 5.23643 38.5006C5.49997 38.9567 5.87895 39.3354 6.33528 39.5986C6.7916 39.8617 7.30918 40.0001 7.83595 39.9998H40.166C40.6927 40.0001 41.2103 39.8617 41.6666 39.5986C42.123 39.3354 42.5019 38.9567 42.7655 38.5006C43.029 38.0445 43.1678 37.527 43.1679 37.0003C43.168 36.4735 43.0293 35.956 42.7659 35.4998L26.6 7.49978C26.3369 7.04282 25.9581 6.66326 25.5016 6.39933C25.0452 6.13541 24.5272 5.99644 24 5.99644C23.4727 5.99644 22.9547 6.13541 22.4983 6.39933C22.0418 6.66326 21.663 7.04282 21.4 7.49978V7.49978Z" fill="black"/>
<path d="M23.9999 30C23.3394 29.9993 22.7038 29.7481 22.2213 29.2971C21.7387 28.8461 21.4452 28.2289 21.3999 27.57L20.6129 15.776C20.5887 15.42 20.6381 15.0628 20.758 14.7267C20.8779 14.3905 21.0656 14.0827 21.3096 13.8223C21.5536 13.5619 21.8486 13.3545 22.1762 13.213C22.5038 13.0716 22.857 12.9991 23.2139 13H24.7859C25.1427 12.9992 25.4958 13.0718 25.8233 13.2133C26.1508 13.3549 26.4456 13.5623 26.6895 13.8227C26.9334 14.0831 27.1211 14.3909 27.2409 14.7269C27.3607 15.063 27.41 15.4201 27.3859 15.776L26.5999 27.57C26.5546 28.2289 26.2611 28.8461 25.7785 29.2971C25.296 29.7481 24.6604 29.9993 23.9999 30V30ZM23.2139 15C23.1313 14.9998 23.0495 15.0166 22.9737 15.0495C22.8978 15.0824 22.8296 15.1305 22.7733 15.191C22.717 15.2515 22.6737 15.3229 22.6463 15.4009C22.6189 15.4788 22.6078 15.5616 22.6139 15.644L23.3999 27.437C23.3999 27.5961 23.4631 27.7488 23.5756 27.8613C23.6882 27.9738 23.8408 28.037 23.9999 28.037C24.159 28.037 24.3116 27.9738 24.4242 27.8613C24.5367 27.7488 24.5999 27.5961 24.5999 27.437L25.3869 15.644C25.393 15.5616 25.3819 15.4788 25.3545 15.4009C25.3271 15.3229 25.2838 15.2515 25.2275 15.191C25.1712 15.1305 25.103 15.0824 25.0271 15.0495C24.9513 15.0166 24.8695 14.9998 24.7869 15H23.2139Z" fill="black"/>
<path d="M24 38C23.3078 38 22.6311 37.7947 22.0555 37.4101C21.4799 37.0256 21.0313 36.4789 20.7664 35.8394C20.5015 35.1999 20.4322 34.4961 20.5673 33.8172C20.7023 33.1383 21.0356 32.5146 21.5251 32.0251C22.0146 31.5356 22.6383 31.2023 23.3172 31.0673C23.9961 30.9322 24.6999 31.0015 25.3394 31.2664C25.9789 31.5313 26.5256 31.9799 26.9101 32.5555C27.2947 33.1311 27.5 33.8078 27.5 34.5C27.5 35.4283 27.1313 36.3185 26.4749 36.9749C25.8185 37.6313 24.9283 38 24 38ZM24 33C23.7033 33 23.4133 33.088 23.1666 33.2528C22.92 33.4176 22.7277 33.6519 22.6142 33.926C22.5007 34.2001 22.4709 34.5017 22.5288 34.7926C22.5867 35.0836 22.7296 35.3509 22.9393 35.5607C23.1491 35.7704 23.4164 35.9133 23.7074 35.9712C23.9983 36.0291 24.2999 35.9994 24.574 35.8858C24.8481 35.7723 25.0824 35.58 25.2472 35.3334C25.412 35.0867 25.5 34.7967 25.5 34.5C25.5 34.1022 25.342 33.7206 25.0607 33.4393C24.7794 33.158 24.3978 33 24 33Z" fill="black"/>
</svg>
