<?xml version="1.0" encoding="UTF-8"?>
<!DOCTYPE svg PUBLIC "-//W3C//DTD SVG 1.1//EN" "http://www.w3.org/Graphics/SVG/1.1/DTD/svg11.dtd">
<!-- Creator: CorelDRAW -->
<svg xmlns="http://www.w3.org/2000/svg" xml:space="preserve" width="512px" height="512px" version="1.1" style="shape-rendering:geometricPrecision; text-rendering:geometricPrecision; image-rendering:optimizeQuality; fill-rule:evenodd; clip-rule:evenodd"
viewBox="0 0 512 512"
 xmlns:xlink="http://www.w3.org/1999/xlink">
 <defs>
  <style type="text/css">
   <![CDATA[
    .fil6 {fill:#1E88E5}
    .fil2 {fill:#425796}
    .fil4 {fill:#70564A}
    .fil1 {fill:#D9E6FC}
    .fil0 {fill:#DD5958}
    .fil5 {fill:#EEF4FF}
    .fil3 {fill:#FFE278}
   ]]>
  </style>
 </defs>
 <g id="Layer_x0020_1">
  <metadata id="CorelCorpID_0Corel-Layer"/>
  <path class="fil0" d="M0 169l0 -76c0,-11 9,-20 21,-20l37 0 1 0 318 0 0 0 43 0c12,0 21,9 21,20l0 76 -441 0z"/>
  <path class="fil1" d="M385 480l-364 0c-12,0 -21,-9 -21,-20l0 -297 441 0 0 116c0,3 -41,151 -54,187 3,1 5,4 5,7 0,4 -3,7 -7,7z"/>
  <path class="fil2" d="M97 435l-40 0c-6,0 -10,-4 -10,-10l0 -48c0,-6 4,-11 10,-11l40 0c6,0 11,5 11,11l0 48c0,6 -5,10 -11,10z"/>
  <path class="fil2" d="M186 435l-40 0c-6,0 -11,-4 -11,-10l0 -48c0,-6 5,-11 11,-11l40 0c6,0 10,5 10,11l0 48c0,6 -4,10 -10,10z"/>
  <path class="fil2" d="M97 349l-40 0c-6,0 -10,-5 -10,-11l0 -47c0,-6 4,-11 10,-11l40 0c6,0 11,5 11,11l0 47c0,6 -5,11 -11,11z"/>
  <path class="fil2" d="M186 349l-40 0c-6,0 -11,-5 -11,-11l0 -47c0,-6 5,-11 11,-11l40 0c6,0 10,5 10,11l0 47c0,6 -4,11 -10,11z"/>
  <path class="fil2" d="M97 263l-40 0c-6,0 -10,-5 -10,-11l0 -48c0,-6 4,-10 10,-10l40 0c6,0 11,4 11,10l0 48c0,6 -5,11 -11,11z"/>
  <path class="fil2" d="M186 263l-40 0c-6,0 -11,-5 -11,-11l0 -48c0,-6 5,-10 11,-10l40 0c6,0 10,4 10,10l0 48c0,6 -4,11 -10,11z"/>
  <path class="fil2" d="M274 263l-39 0c-6,0 -11,-5 -11,-11l0 -48c0,-6 5,-10 11,-10l39 0c6,0 11,4 11,10l0 48c0,6 -5,11 -11,11z"/>
  <path class="fil2" d="M363 263l-40 0c-6,0 -10,-5 -10,-11l0 -48c0,-6 4,-10 10,-10l40 0c6,0 11,4 11,10l0 48c0,6 -5,11 -11,11z"/>
  <path class="fil2" d="M274 349l-39 0c-6,0 -11,-5 -11,-11l0 -47c0,-6 5,-11 11,-11l39 0c6,0 11,5 11,11l0 47c0,6 -5,11 -11,11z"/>
  <path class="fil2" d="M274 435l-39 0c-6,0 -11,-4 -11,-10l0 -48c0,-6 5,-11 11,-11l39 0c6,0 11,5 11,11l0 48c0,6 -5,10 -11,10z"/>
  <path class="fil3" d="M81 130c-13,0 -24,-11 -24,-24l0 -53c0,-13 11,-23 24,-23 13,0 23,10 23,23l0 53c0,13 -10,24 -23,24z"/>
  <path class="fil3" d="M220 130c-13,0 -23,-11 -23,-24l0 -53c0,-13 10,-23 23,-23 14,0 24,10 24,23l0 53c0,14 -10,24 -24,24z"/>
  <path class="fil3" d="M360 130c-13,0 -23,-11 -23,-24l0 -53c0,-13 10,-23 23,-23 13,0 24,10 24,23l0 53c0,13 -11,24 -24,24z"/>
  <path class="fil4" d="M405 482c-59,0 -107,-48 -107,-107 0,-59 48,-107 107,-107 59,0 107,48 107,107 0,59 -48,107 -107,107z"/>
  <path class="fil5" d="M405 460c-22,0 -43,-9 -60,-25 -16,-17 -25,-38 -25,-60 0,-46 38,-84 85,-84 46,0 84,38 84,84 0,47 -38,85 -84,85z"/>
  <g id="_457525944">
   <path class="fil6" d="M397 292c3,0 5,-1 8,-1 3,0 5,1 8,1l0 15c0,4 -4,7 -8,7 -4,0 -8,-3 -8,-7l0 -15z"/>
   <path class="fil6" d="M458 311c4,3 8,7 11,11l-10 10c-2,1 -3,2 -5,2 -2,0 -4,-1 -6,-2 -3,-3 -3,-8 0,-11l10 -10z"/>
   <path class="fil6" d="M488 367c0,3 1,5 1,8 0,3 -1,5 -1,8l-14 0c-4,0 -7,-4 -7,-8 0,-4 3,-8 7,-8l14 0z"/>
   <path class="fil6" d="M470 428c-4,4 -7,8 -11,12l-11 -11c-3,-3 -3,-8 0,-11 3,-3 8,-3 11,0l11 10z"/>
   <path class="fil6" d="M405 460c-3,0 -5,-1 -8,-1l0 -15c0,-4 4,-7 8,-7 4,0 8,3 8,7l0 15c-3,0 -5,1 -8,1z"/>
   <path class="fil6" d="M351 440c-2,-2 -4,-4 -6,-5 -1,-2 -3,-4 -5,-6l11 -11c3,-3 8,-3 11,0 3,3 3,8 0,11l-11 11z"/>
   <path class="fil6" d="M321 383c0,-3 -1,-5 -1,-8 0,-3 1,-5 1,-8l15 0c4,0 7,4 7,8 0,4 -3,8 -7,8l-15 0z"/>
   <path class="fil6" d="M340 321c4,-4 8,-7 12,-11l10 11c3,3 3,8 0,11 -1,1 -3,2 -5,2 -2,0 -4,-1 -6,-2l-11 -11z"/>
  </g>
  <path class="fil6" d="M405 383c-4,0 -8,-4 -8,-8l0 -40c0,-4 4,-7 8,-7 4,0 8,3 8,7l0 40c0,4 -4,8 -8,8z"/>
  <path class="fil6" d="M424 389c-1,0 -2,0 -3,0l-18 -7c-4,-1 -7,-6 -5,-10 1,-4 6,-6 10,-4l18 6c4,2 6,6 5,10 -1,3 -4,5 -7,5z"/>
 </g>
</svg>
