<?xml version="1.0" encoding="iso-8859-1"?>
<!-- Generator: Adobe Illustrator 23.0.5, SVG Export Plug-In . SVG Version: 6.00 Build 0)  -->
<svg version="1.1" xmlns="http://www.w3.org/2000/svg" xmlns:xlink="http://www.w3.org/1999/xlink" x="0px" y="0px"
	 viewBox="0 0 512 512" style="enable-background:new 0 0 512 512;" xml:space="preserve">
<g id="_x31_9_Map">
	<g>
		<path style="fill:#90F5F3;" d="M478.878,433.177H33.146c-10.106,0-17.495-9.534-15.017-19.26l19.593-77.467l11.632-45.908
			c1.716-6.865,7.913-11.679,15.016-11.679h383.281c6.912,0,13.062,4.624,14.921,11.298l19.307,76.227l5.959,23.502l6.102,24.217
			C496.278,423.833,488.889,433.177,478.878,433.177z"/>
		<path style="fill:#F5F5E3;" d="M478.854,433.193h-37.716c-2.548-3.411-5.058-6.822-7.724-10.076
			c-10.115-12.271-22.974-22.308-37.402-29.012c-10.272-4.783-21.171-7.919-31.953-11.448c-12.859-4.274-25.719-9.252-36.5-17.447
			c-10.782-8.194-19.407-20.073-21.093-33.482c-0.902-7.175,0.118-14.702-2.352-21.485c-2.94-8.037-10.193-13.526-17.054-18.584
			c-5.803-4.273-11.605-8.508-17.407-12.781h177.993c6.939,0,13.056,4.626,14.937,11.291l19.289,76.216l5.959,23.523l6.116,24.19
			C496.262,423.822,488.891,433.193,478.854,433.193z"/>
		<path style="fill:#ADABE4;" d="M355.749,178.317c0,55.103-99.739,155.254-99.739,155.254s-99.739-100.152-99.739-155.254
			c0-55.103,44.636-99.739,99.739-99.739C311.113,78.578,355.749,123.214,355.749,178.317z"/>
		
			<ellipse transform="matrix(0.7071 -0.7071 0.7071 0.7071 -53.6006 234.2876)" style="fill:#F5F5E3;" cx="256.01" cy="181.845" rx="48.693" ry="48.693"/>
		<path style="fill:#F5F5E3;" d="M154.9,433.177H33.146c-10.106,0-17.495-9.534-15.017-19.26l19.593-77.467
			c2.098,0.715,4.195,1.621,6.15,2.765c11.06,6.483,17.019,19.116,27.03,27.173c6.007,4.767,13.348,7.771,20.976,8.533
			c7.246,0.763,14.588-0.524,21.834,0c13.062,0.858,25.933,8.057,32.178,19.641c3.194,6.007,4.576,12.871,5.768,19.593
			C152.803,420.496,153.899,426.836,154.9,433.177z"/>
		<path style="fill:#F5F5E3;" d="M189.636,378.715c-26.329,8.443-13.812-26.085-29.744-25.345
			c-40.438,1.877-15.266-28.22-8.512-32.409c14.193-8.803,38.669-8.816,53.555,15.457
			C210.763,345.922,205.93,373.489,189.636,378.715z"/>
		<path d="M498.57,412.93l-31.396-124.054c-0.208-0.736-0.509-1.423-0.794-2.119c-3.059-7.541-10.427-12.662-18.726-12.662H313.889
			c23.912-31.441,46.628-68.473,46.628-95.777c0-57.625-46.88-104.506-104.506-104.506s-104.51,46.88-104.51,104.506
			c0,27.303,22.717,64.336,46.63,95.777H64.37c-9.316,0-17.393,6.29-19.637,15.275c-3.728,14.731,4.961-19.603-31.224,123.369
			c-1.55,6.075-0.223,12.407,3.641,17.374c3.869,4.977,9.697,7.83,15.996,7.83c467.312,0,449.44,1.648,457.132-3.632
			C497.886,429.076,500.355,420.448,498.57,412.93z M161.036,178.318c0-52.369,42.607-94.971,94.976-94.971
			s94.971,42.602,94.971,94.971c0,46.894-77.676,130.408-94.971,148.416C238.717,308.727,161.036,225.213,161.036,178.318z
			 M33.146,428.409c-3.333,0-6.42-1.513-8.468-4.148c-2.044-2.626-2.747-5.968-1.927-9.176l18.233-72.031
			c10.624,6.071,16.218,18.425,26.952,27.069c17.246,13.685,33.357,8.665,45.465,9.558c11.997,0.787,23.1,7.519,28.282,17.123
			c3.6,6.766,4.888,15.235,7.616,31.606H33.146z M158.922,428.409c-3.996-24.384-6.033-60.499-55.669-58.188
			c-37.382,1.651-35.377-22.462-56.969-35.121c-0.912-0.533-1.897-1.022-2.908-1.493l10.609-41.91
			c1.182-4.749,5.456-8.068,10.386-8.068h141.163c23.058,29.022,45.173,51.376,47.099,53.31c1.869,1.869,4.893,1.867,6.76,0
			c1.507-1.514,15.393-15.558,32.404-35.491c3.405,3.016,6.37,6.402,7.842,10.426c4.019,11.069-4.281,34.852,25.037,57.132
			c33.613,25.54,73.106,16.419,106.803,59.404H158.922z M485.573,426.069c-4.383,3.508-7.179,2.004-42.055,2.341
			c-40.859-54.659-78.544-40.748-113.07-66.992c-33.081-25.134-7.423-45.241-32.508-67.261c2.805-3.381,5.662-6.893,8.534-10.508
			h141.176c4.225,0,8.025,2.497,9.733,6.153c0.227,0.491,0.422,0.999,0.57,1.528l31.354,123.891
			C490.306,419.385,488.718,423.54,485.573,426.069z"/>
		<path d="M309.47,181.847c0-29.478-23.98-53.463-53.459-53.463s-53.463,23.985-53.463,53.463s23.985,53.459,53.463,53.459
			S309.47,211.326,309.47,181.847z M212.083,181.847c0-24.222,19.707-43.929,43.929-43.929c24.218,0,43.924,19.707,43.924,43.929
			c0,24.218-19.707,43.924-43.924,43.924C231.789,225.771,212.083,206.065,212.083,181.847z"/>
		<path d="M148.867,316.911c-4.879,3.026-19.274,18.37-15.591,30.242c2.481,7.998,11.485,11.643,26.839,10.978
			c8.387-0.525,1.397,34.632,30.977,25.125c18.616-5.967,25.729-36.575,17.905-49.329C194.13,309.68,167.65,305.256,148.867,316.911
			z M200.114,360.547c-5.176,13.964-16.741,16.288-20.731,14.106c-6.637-3.664-2.969-26.645-19.716-26.047
			c-9.851,0.452-16.308-1.141-17.286-4.274c-1.662-5.358,7.402-16.769,11.513-19.32c14.314-8.883,34.883-5.818,46.973,13.901
			C203.047,342.46,203.377,351.743,200.114,360.547z"/>
	</g>
</g>
<g id="Layer_1">
</g>
</svg>
