<?xml version="1.0" encoding="iso-8859-1"?>
<!-- Generator: Adobe Illustrator 24.1.0, SVG Export Plug-In . SVG Version: 6.00 Build 0)  -->
<svg version="1.1" xmlns="http://www.w3.org/2000/svg" xmlns:xlink="http://www.w3.org/1999/xlink" x="0px" y="0px"
	 viewBox="0 0 512 512" style="enable-background:new 0 0 512 512;" xml:space="preserve">
<g id="_x31_3_x2C__Humidity_x2C__Humidity_Sensor_x2C__Damp_x2C__Raindrops_x2C__Percentage">
	<g>
		<g id="XMLID_738_">
			<path id="XMLID_749_" style="fill:#00C0F1;" d="M391.84,210.9L320.88,86.21C295.7,43.47,276.45,11,276.45,11
				s-40.3,67.81-80.54,136.68l22.12,342.38c18.11,7.06,37.81,10.94,58.42,10.94c88.76,0,160.71-71.95,160.71-160.71
				C437.16,303.15,408.79,243.88,391.84,210.9z"/>
			<path id="XMLID_746_" style="fill:#25D9F8;" d="M195.91,147.68C177.97,119.7,164.93,101,164.93,101S31,293.1,31,367.07
				C31,441.04,90.96,501,164.93,501c73.929,0,133.93-59.922,133.93-133.93C298.86,316.18,235.47,209.38,195.91,147.68z"/>
			<path id="XMLID_742_" style="fill:#009AE4;" d="M234.04,321.63c4.77,9.96,0.56,21.9-9.4,26.67c-9.96,4.77-21.9,0.56-26.67-9.4
				s-0.57-21.91,9.4-26.68C217.33,307.45,229.27,311.66,234.04,321.63z"/>
			<path id="XMLID_741_" style="fill:#009AE4;" d="M131.89,384.59c4.77,9.96,0.56,21.9-9.4,26.67c-9.96,4.77-21.91,0.57-26.68-9.4
				c-4.77-9.96-0.56-21.9,9.41-26.67C115.18,370.42,127.12,374.63,131.89,384.59z"/>
			<path id="XMLID_740_" style="fill:#25D9F8;" d="M396,41c46.94,0,85,38.06,85,85c0,48.93-41.101,87.338-89.16,84.9
				C346.83,208.73,311,171.54,311,126c0-14.38,3.57-27.92,9.88-39.79C335.15,59.32,363.44,41,396,41z"/>
		</g>
		<path id="XMLID_750_" d="M243.063,317.308c-7.144-14.92-25.093-21.248-40.014-14.102c-14.919,7.144-21.246,25.094-14.102,40.014
			c7.161,14.954,25.128,21.229,40.014,14.102C243.917,350.16,250.223,332.261,243.063,317.308L243.063,317.308z M220.323,339.282
			c-4.975,2.382-10.957,0.272-13.338-4.7c-2.381-4.974-0.272-10.957,4.701-13.338c4.964-2.378,10.943-0.302,13.338,4.701
			c0,0,0,0,0,0C227.411,330.93,225.308,336.896,220.323,339.282z"/>
		<path id="XMLID_754_" d="M123.825,364.931c-15.64-5.512-32.755,2.685-38.266,18.322c-5.513,15.64,2.687,32.756,18.322,38.266
			c15.641,5.513,32.757-2.689,38.266-18.322C147.659,387.557,139.461,370.441,123.825,364.931z M113.853,403.213
			c-5.626,0.028-9.77-4.412-9.996-9.547c-0.242-5.498,4.017-10.408,9.996-10.417c5.799-0.009,10.012,4.673,10.005,9.982
			C123.851,398.59,119.626,403.185,113.853,403.213z"/>
		<path id="XMLID_757_" d="M150.212,317.96c-2.898-4.702-9.059-6.163-13.76-3.267c-4.702,2.898-6.164,9.059-3.267,13.76
			l52.468,85.13c2.899,4.702,9.059,6.164,13.76,3.267c4.702-2.898,6.164-9.059,3.267-13.76L150.212,317.96z"/>
		<path id="XMLID_759_" d="M491,126c0-52.383-42.617-95-95-95c-30.25,0-57.242,14.213-74.653,36.31
			C300.5,31.96,285.223,6.189,285.052,5.9c-1.8-3.036-5.066-4.898-8.596-4.9c-0.105,0.029-5.574-0.204-8.603,4.891
			c-0.376,0.632-35.421,59.613-72.381,122.732c-13.194-20.194-22.167-33.094-22.34-33.343c-3.977-5.704-12.431-5.701-16.406,0
			c-0.337,0.484-34.096,49.013-67.394,105.97C43.99,278.809,21,334.599,21,367.071C21,446.434,85.566,511,164.929,511
			c18.795,0,36.757-3.626,53.231-10.207C236.821,507.567,256.41,511,276.45,511c94.13,0,170.71-76.58,170.71-170.71
			c0-34.342-21.905-84.612-39.396-120.018C454.616,214.46,491,174.4,491,126z M164.929,491C96.594,491,41,435.406,41,367.071
			c0-58.082,91.105-199.596,123.929-248.322c32.785,48.669,123.929,190.286,123.929,248.322
			C288.857,435.406,233.263,491,164.929,491z M427.16,340.29c0,96.182-89.27,167.971-183.415,147.15
			c39.184-25.744,65.112-70.082,65.112-120.368c0-56.515-70.567-171.448-101.235-219.612c27.765-47.478,55.303-94.037,68.82-116.846
			c7.511,12.694,19.348,32.718,33.094,56.044C304.058,98.652,301,111.975,301,126c0,48.823,37.023,89.155,84.466,94.413
			C401.746,252.531,427.16,307.093,427.16,340.29z M396,201c-41.355,0-75-33.645-75-75s33.645-75,75-75s75,33.645,75,75
			S437.355,201,396,201z"/>
		<path id="XMLID_764_" d="M345.747,100.138c-3.454,4.31-2.761,10.603,1.549,14.057c4.309,3.454,10.602,2.762,14.057-1.548
			c17.772-22.172,51.486-22.218,69.295,0c3.454,4.309,9.747,5.003,14.057,1.548c4.31-3.454,5.003-9.747,1.549-14.057
			C420.479,67.983,371.568,67.925,345.747,100.138z"/>
		<path id="XMLID_765_" d="M365.747,130.53c-3.454,4.309-2.761,10.603,1.548,14.057c4.311,3.454,10.604,2.761,14.058-1.548
			c7.516-9.376,21.764-9.395,29.295,0c3.447,4.3,9.737,5.011,14.058,1.548c4.309-3.454,5.002-9.748,1.548-14.057
			C410.739,111.176,381.293,111.137,365.747,130.53z"/>
		<circle id="XMLID_766_" cx="396" cy="166" r="10"/>
	</g>
</g>
<g id="Layer_1">
</g>
</svg>
