<?xml version="1.0" encoding="UTF-8" standalone="no"?> <svg width="24" height="24" viewBox="0 0 24 24" fill="none" xmlns="http://www.w3.org/2000/svg">
<g clip-path="url(#clip0_438_85)">
<path d="M12 1C10.1416 1.00402 8.36081 1.74524 7.04841 3.06095C5.73602 4.37667 4.99931 6.15937 4.99999 8.01773V11.0177C4.99999 11.0177 5.0164 16.5812 3.43505 17.8046C3.40575 17.8239 3.38275 17.8514 3.3689 17.8837C3.35504 17.9159 3.35094 17.9515 3.35709 17.9861C3.36325 18.0206 3.37939 18.0527 3.40353 18.0781C3.42766 18.1036 3.45874 18.1215 3.49291 18.1295V18.1295C9.09568 19.3138 14.8841 19.3138 20.4869 18.1295C20.5211 18.1215 20.5522 18.1036 20.5763 18.0781C20.6004 18.0527 20.6166 18.0206 20.6227 17.9861C20.6289 17.9515 20.6248 17.9159 20.6109 17.8837C20.5971 17.8514 20.5741 17.8239 20.5448 17.8046C18.9634 16.5812 19 11.0177 19 11.0177V8.01773C19.0007 6.15937 18.264 4.37667 16.9516 3.06095C15.6392 1.74524 13.8583 1.00402 12 1" fill="#CCF0EC"/>
<path d="M22 14.3281C21.8112 14.3281 21.6263 14.2745 21.4667 14.1737C21.307 14.0729 21.1792 13.929 21.098 13.7586C21.0168 13.5881 20.9855 13.3982 21.0077 13.2107C21.0299 13.0233 21.1048 12.8459 21.2236 12.6992C21.726 12.0765 22 11.3006 22 10.5005C22 9.70041 21.726 8.92446 21.2236 8.30176C21.1403 8.19977 21.0779 8.08231 21.0401 7.95613C21.0022 7.82995 20.9897 7.69754 21.0032 7.56651C21.0167 7.43548 21.056 7.30841 21.1187 7.19259C21.1815 7.07678 21.2665 6.97451 21.3689 6.89166C21.4714 6.80881 21.5891 6.74702 21.7155 6.70982C21.8419 6.67262 21.9743 6.66076 22.1053 6.67492C22.2363 6.68907 22.3631 6.72897 22.4786 6.79231C22.5941 6.85565 22.696 6.94118 22.7783 7.044C23.5688 8.02259 24 9.24256 24 10.5005C24 11.7585 23.5688 12.9785 22.7783 13.9571C22.6846 14.0732 22.566 14.1668 22.4313 14.231C22.2966 14.2952 22.1492 14.3284 22 14.3281V14.3281ZM2.62699 14.1065C2.83334 13.9399 2.9651 13.6982 2.9933 13.4345C3.0215 13.1708 2.94384 12.9067 2.77738 12.7002C2.275 12.0773 2.00102 11.3012 2.00102 10.501C2.00102 9.70075 2.275 8.92464 2.77738 8.30176C2.85996 8.19968 2.92163 8.08233 2.95886 7.95641C2.9961 7.83049 3.00817 7.69847 2.99438 7.56789C2.98059 7.43731 2.94122 7.31072 2.87851 7.19535C2.8158 7.07999 2.73098 6.9781 2.62889 6.89552C2.52681 6.81293 2.40945 6.75126 2.28354 6.71403C2.15762 6.6768 2.0256 6.66473 1.89502 6.67852C1.76443 6.69231 1.63785 6.73168 1.52248 6.79439C1.40712 6.8571 1.30523 6.94192 1.22265 7.044C0.432475 8.02244 0.00131018 9.24204 0.000946275 10.4997C0.000582373 11.7574 0.431041 12.9772 1.22065 13.9561C1.38719 14.1625 1.62891 14.2943 1.89263 14.3225C2.15634 14.3507 2.42046 14.273 2.6269 14.1065L2.62699 14.1065ZM8.00999 18.8181C8.00657 18.8857 7.98991 18.9494 7.98991 19.0177C7.98991 20.0786 8.41133 21.096 9.16148 21.8462C9.91163 22.5963 10.929 23.0177 11.9899 23.0177C13.0508 23.0177 14.0682 22.5963 14.8183 21.8462C15.5685 21.096 15.9899 20.0786 15.9899 19.0177C15.9899 18.9494 15.9732 18.8857 15.9698 18.8181C13.3228 19.0757 10.657 19.0757 8.00999 18.8181V18.8181Z" fill="#00C8AF"/>
</g>
<defs>
<clipPath id="clip0_438_85">
<rect width="24" height="24" fill="white"/>
</clipPath>
</defs>
</svg>
