<?xml version="1.0" encoding="UTF-8"?>
<!DOCTYPE svg PUBLIC "-//W3C//DTD SVG 1.1//EN" "http://www.w3.org/Graphics/SVG/1.1/DTD/svg11.dtd">
<!-- Creator: CorelDRAW -->
<svg xmlns="http://www.w3.org/2000/svg" xml:space="preserve" width="512px" height="512px" version="1.1" style="shape-rendering:geometricPrecision; text-rendering:geometricPrecision; image-rendering:optimizeQuality; fill-rule:evenodd; clip-rule:evenodd"
viewBox="0 0 512 512"
 xmlns:xlink="http://www.w3.org/1999/xlink">
 <defs>
  <style type="text/css">
   <![CDATA[
    .fil0 {fill:#E5B23B}
    .fil1 {fill:#FEC642}
   ]]>
  </style>
 </defs>
 <g id="Layer_x0020_1">
  <metadata id="CorelCorpID_0Corel-Layer"/>
  <path class="fil0" d="M192 347l-149 0c-4,0 -7,-3 -7,-7 0,-4 3,-7 7,-7l149 0c4,0 7,3 7,7 0,4 -3,7 -7,7z"/>
  <path class="fil0" d="M465 367l-148 0c-4,0 -7,-3 -7,-7 0,-4 3,-7 7,-7l148 0c4,0 7,3 7,7 0,4 -3,7 -7,7z"/>
  <path class="fil0" d="M281 395l-149 0c-4,0 -7,-3 -7,-7 0,-4 3,-7 7,-7l149 0c4,0 7,3 7,7 0,4 -3,7 -7,7z"/>
  <path class="fil0" d="M418 433l-149 0c-4,0 -7,-3 -7,-7 0,-4 3,-7 7,-7l149 0c4,0 7,3 7,7 0,4 -3,7 -7,7z"/>
  <path class="fil0" d="M227 456l-149 0c-4,0 -7,-3 -7,-7 0,-4 3,-7 7,-7l149 0c4,0 7,3 7,7 0,4 -3,7 -7,7z"/>
  <path class="fil0" d="M332 498l-149 0c-4,0 -7,-3 -7,-7 0,-4 3,-7 7,-7l149 0c4,0 7,3 7,7 0,4 -3,7 -7,7z"/>
  <path class="fil1" d="M58 306c-1,0 -1,0 -2,0l-49 0c-4,0 -7,-3 -7,-7 0,-4 3,-7 7,-7l44 0c6,-48 29,-93 66,-126 38,-35 87,-54 139,-54 51,0 101,19 139,54 36,33 59,78 65,126l45 0c4,0 7,3 7,7 0,4 -3,7 -7,7l-51 0 0 0 -396 0z"/>
  <path class="fil0" d="M256 76c-4,0 -7,-3 -7,-7l0 -48c0,-4 3,-7 7,-7 4,0 7,3 7,7l0 48c0,4 -3,7 -7,7z"/>
  <path class="fil0" d="M371 107c-1,0 -2,0 -4,-1 -3,-2 -4,-6 -2,-10l24 -42c2,-3 6,-4 9,-2 4,2 5,6 3,9l-24 42c-1,3 -3,4 -6,4z"/>
  <path class="fil0" d="M455 191c-2,0 -5,-1 -6,-4 -2,-3 -1,-7 2,-9l42 -24c4,-2 8,-1 10,2 2,4 1,8 -3,10l-42 24c-1,1 -2,1 -3,1z"/>
  <path class="fil0" d="M141 107c-2,0 -5,-1 -6,-4l-24 -42c-2,-3 -1,-7 2,-9 4,-2 8,-1 10,2l24 42c2,4 1,8 -2,10 -2,1 -3,1 -4,1z"/>
  <path class="fil0" d="M57 191c-1,0 -2,0 -4,-1l-42 -24c-3,-2 -4,-6 -2,-10 2,-3 6,-4 10,-2l42 24c3,2 4,6 2,9 -1,3 -3,4 -6,4z"/>
  <path class="fil0" d="M315 84c-1,0 -1,0 -2,0 -4,-1 -6,-5 -5,-9l6 -23c1,-3 5,-6 9,-5 3,1 6,5 5,9l-6 23c-1,3 -4,5 -7,5z"/>
  <path class="fil0" d="M418 144c-2,0 -3,-1 -5,-2 -3,-3 -3,-7 0,-10l17 -18c3,-3 7,-3 10,0 3,3 3,7 0,10l-17 18c-1,1 -3,2 -5,2z"/>
  <path class="fil0" d="M478 247c-3,0 -6,-2 -7,-5 -1,-4 1,-8 5,-9l23 -7c4,-1 8,1 9,5 1,4 -1,8 -5,9l-23 7c-1,0 -1,0 -2,0z"/>
  <path class="fil0" d="M34 247c-1,0 -1,0 -2,0l-24 -7c-4,-1 -6,-5 -5,-9 1,-4 5,-6 9,-5l24 7c4,1 6,5 5,9 -1,3 -4,5 -7,5z"/>
  <path class="fil0" d="M93 144c-2,0 -4,-1 -5,-2l-17 -18c-3,-3 -3,-7 0,-10 3,-3 7,-3 10,0l17 18c3,3 3,7 0,10 -2,1 -3,2 -5,2z"/>
  <path class="fil0" d="M196 84c-3,0 -6,-2 -7,-5l-6 -23c-1,-4 1,-8 5,-9 4,-1 8,2 9,5l6 23c1,4 -2,8 -5,9 -1,0 -1,0 -2,0z"/>
 </g>
</svg>
