<?xml version="1.0" encoding="UTF-8"?>
<!DOCTYPE svg PUBLIC "-//W3C//DTD SVG 1.1//EN" "http://www.w3.org/Graphics/SVG/1.1/DTD/svg11.dtd">
<!-- Creator: CorelDRAW -->
<svg xmlns="http://www.w3.org/2000/svg" xml:space="preserve" width="512px" height="512px" version="1.1" style="shape-rendering:geometricPrecision; text-rendering:geometricPrecision; image-rendering:optimizeQuality; fill-rule:evenodd; clip-rule:evenodd"
viewBox="0 0 512 512"
 xmlns:xlink="http://www.w3.org/1999/xlink">
 <defs>
  <style type="text/css">
   <![CDATA[
    .fil1 {fill:#00CCFF}
    .fil0 {fill:#1B74B9}
    .fil2 {fill:white}
   ]]>
  </style>
 </defs>
 <g id="Layer_x0020_1">
  <metadata id="CorelCorpID_0Corel-Layer"/>
  <path class="fil0" d="M260 121c77,0 151,44 218,134 2,3 2,6 0,9 -67,88 -139,133 -216,133 -130,0 -224,-127 -229,-134 -1,-2 -1,-5 0,-8 4,-5 97,-132 227,-134zm244 360l-103 0c-10,0 -10,-15 0,-15l96 0 0 -95c0,-10 15,-10 15,0l0 103c0,4 -4,7 -8,7zm-392 0l-105 0c-4,0 -7,-3 -7,-7l0 -104c0,-10 15,-10 15,0l0 96 97 0c10,0 10,15 0,15zm392 -331c-4,0 -7,-4 -7,-8l0 -97 -96 0c-9,0 -10,-14 0,-14l103 0c4,0 8,3 8,7l0 104c0,4 -4,8 -8,8zm-497 -1c-4,0 -7,-3 -7,-7l0 -104c0,-4 3,-7 7,-7l104 0c11,0 10,15 0,15l-96 0 0 96c0,4 -3,7 -8,7zm249 146c-22,0 -39,-17 -39,-39 0,-22 17,-39 39,-39 22,0 39,17 39,39 0,22 -17,39 -39,39zm-25 -39c0,14 11,25 25,25 14,0 25,-11 25,-25 0,-14 -11,-25 -25,-25 -14,0 -25,12 -25,25zm57 -83c13,5 24,12 33,22 6,7 -4,17 -11,10 -19,-20 -47,-28 -74,-20 -39,10 -63,51 -52,91 17,65 104,75 137,18 10,-18 12,-38 7,-57 -2,-9 12,-13 14,-4 17,57 -28,113 -86,113 -39,0 -76,-26 -86,-66 -19,-70 49,-133 118,-107zm-28 -37c-109,1 -194,101 -211,123 18,23 103,124 213,124 71,0 139,-42 201,-124 -63,-82 -131,-124 -203,-123z"/>
  <path class="fil1" d="M463 259c-63,-82 -131,-124 -203,-123 -109,1 -194,101 -211,123 18,23 103,124 213,124 71,0 139,-42 201,-124zm-207 -42c22,0 39,17 39,39 0,22 -17,39 -39,39 -22,0 -39,-17 -39,-39 0,-22 17,-39 39,-39zm32 -44c13,5 24,12 33,22 6,7 -4,17 -11,10 -19,-20 -47,-28 -74,-20 -39,10 -63,51 -52,91 17,65 104,75 137,18 10,-18 12,-38 7,-57 -2,-9 12,-13 14,-4 17,57 -28,113 -86,113 -39,0 -76,-26 -86,-66 -19,-70 49,-133 118,-107z"/>
  <path class="fil2" d="M281 256c0,-14 -11,-25 -25,-25 -14,0 -25,12 -25,25 0,14 11,25 25,25 14,0 25,-11 25,-25z"/>
 </g>
</svg>
