<?xml version="1.0" encoding="iso-8859-1"?>
<!-- Generator: Adobe Illustrator 19.0.0, SVG Export Plug-In . SVG Version: 6.00 Build 0)  -->
<svg version="1.1" xmlns="http://www.w3.org/2000/svg" xmlns:xlink="http://www.w3.org/1999/xlink" x="0px" y="0px"
	 viewBox="0 0 512 512" style="enable-background:new 0 0 512 512;" xml:space="preserve">
<g id="_x31_001_x2C___Alert_x2C__danger_x2C__warning_x2C__sign">
	<g>
		<g>
			<g id="XMLID_599_">
				<g>
					<g>
						<path style="fill:#DFF9FB;" d="M263.57,171.138c13.33,0,23.87,11.3,22.949,24.6l-7.56,109.69
							c-0.84,12.07-10.87,21.43-22.96,21.43c-12.09,0-22.12-9.359-22.96-21.43l-7.56-109.69c-0.92-13.3,9.62-24.6,22.95-24.6H263.57
							z"/>
					</g>
					<g>
						<circle style="fill:#DFF9FB;" cx="256" cy="380.558" r="26.851"/>
					</g>
					<g>
						<path style="fill:#F73E54;" d="M460.9,405.707c11.859,22.4-4.381,49.371-29.721,49.371H80.82
							c-25.34,0-41.58-26.971-29.72-49.371l175.18-330.89c12.63-23.86,46.81-23.86,59.44,0L460.9,405.707z M286.52,195.738
							c0.921-13.3-9.619-24.6-22.949-24.6h-15.14c-13.33,0-23.87,11.3-22.95,24.6l7.56,109.69c0.84,12.07,10.87,21.43,22.96,21.43
							c12.09,0,22.12-9.359,22.96-21.43L286.52,195.738z M282.85,380.557c0-14.828-12.02-26.85-26.85-26.85
							c-14.83,0-26.85,12.021-26.85,26.85c0,14.83,12.02,26.852,26.85,26.852C270.83,407.408,282.85,395.387,282.85,380.557z"/>
					</g>
				</g>
				<g>
					<g>
						<path d="M431.18,463.078H80.82c-14.731,0-28.063-7.537-35.663-20.158c-7.6-12.623-8.021-27.934-1.127-40.955l175.18-330.891
							c7.342-13.871,21.096-22.152,36.791-22.152s29.448,8.281,36.79,22.152l175.181,330.89c6.894,13.021,6.473,28.332-1.128,40.955
							C459.243,455.541,445.911,463.078,431.18,463.078z M256,64.922c-9.662,0-18.129,5.098-22.65,13.638L58.17,409.451
							c-4.245,8.018-3.985,17.443,0.694,25.215c4.679,7.772,12.886,12.412,21.956,12.412h350.36c9.069,0,17.277-4.641,21.956-12.412
							c4.68-7.771,4.94-17.197,0.694-25.215L278.649,78.561C274.129,70.021,265.662,64.922,256,64.922z"/>
					</g>
					<g>
						<path d="M256,334.857c-16.223,0-29.814-12.684-30.94-28.875l-7.561-109.694c-0.591-8.544,2.422-17.037,8.267-23.299
							c5.842-6.26,14.104-9.851,22.665-9.851h15.14c8.562,0,16.822,3.591,22.665,9.852c5.845,6.263,8.856,14.756,8.265,23.301
							l-7.559,109.686C285.814,322.174,272.224,334.857,256,334.857z M248.43,179.138c-4.203,0-8.098,1.693-10.967,4.768
							c-2.871,3.077-4.292,7.082-4.002,11.28l7.56,109.692c0.545,7.838,7.125,13.98,14.979,13.98
							c7.853,0,14.434-6.143,14.979-13.986l7.559-109.683c0.291-4.2-1.13-8.206-4.001-11.283c-2.868-3.074-6.764-4.768-10.967-4.768
							H248.43z"/>
					</g>
					<g>
						<path d="M256,415.408c-19.216,0-34.85-15.635-34.85-34.852c0-19.215,15.634-34.85,34.85-34.85
							c19.216,0,34.85,15.635,34.85,34.85C290.85,399.773,275.216,415.408,256,415.408z M256,361.707
							c-10.394,0-18.85,8.457-18.85,18.85c0,10.395,8.456,18.852,18.85,18.852c10.394,0,18.85-8.457,18.85-18.852
							C274.85,370.164,266.394,361.707,256,361.707z"/>
					</g>
				</g>
			</g>
		</g>
	</g>
</g>
<g id="Layer_1">
</g>
</svg>
