<svg xmlns="http://www.w3.org/2000/svg" version="1.1" xmlns:xlink="http://www.w3.org/1999/xlink" width="1500" height="1500" viewBox="0 0 1500 1500"><rect width="1500" height="1500" x="0" y="0" id="background" stroke="transparent" fill="#040046"></rect><svg xml:space="preserve" width="1000" height="1000" data-version="2" data-id="lg_3m1LHOX1B4FHJ3ZiTD" viewBox="0 0 563 149" x="250" y="250"><rect width="100%" height="100%" fill="transparent"></rect><g transform="translate(43.33 61.97)"><linearGradient id="a" x1="-.05" x2="4.25" y1="0" y2="0" gradientUnits="objectBoundingBox"><stop offset="0%" stop-color="#6ee2f5"></stop><stop offset="100%" stop-color="#6454f0"></stop></linearGradient><path fill="url(#a)" d="m128.26 431.82 55.97-82.07h-55.97v-11.6h75.4v4.93l-56.41 82.36h55.1v11.6h-74.09Z" transform="translate(-165.96 -387.6)"></path></g><rect width="75.4" height="98.89" x="-37.7" y="-49.45" fill="none" rx="0" ry="0" transform="translate(43.83 62.47)"></rect><g transform="translate(120.1 75.16)"><linearGradient id="b" x1="-1.18" x2="3.78" y1="0" y2="0" gradientUnits="objectBoundingBox"><stop offset="0%" stop-color="#6ee2f5"></stop><stop offset="100%" stop-color="#6454f0"></stop></linearGradient><path fill="url(#b)" d="M269.92 435.3q-3.33 1.01-6.89 1.74-3.55.72-7.83 1.3-4.27.58-8.91.58-7.25 0-13.49-2.03-6.23-2.03-10.87-6.52-4.64-4.5-7.33-11.67-2.68-7.18-2.68-17.62 0-9.43 2.61-16.6 2.61-7.18 7.18-12.04 4.57-4.86 10.73-7.32 6.16-2.47 13.41-2.47 7.11 0 12.33 2.76 5.22 2.75 8.62 7.47 3.41 4.71 5.08 11.02 1.67 6.3 1.67 13.26l-2.18 6.38h-46.83q0 4.5 1.16 8.99 1.16 4.5 3.98 8.12 2.83 3.63 7.4 5.88 4.57 2.24 11.38 2.24 4.35 0 7.98-.5 3.62-.51 6.3-1.16 2.69-.66 5.01-1.53Zm-8.41-41.04q0-1.01-.43-4.49-.44-3.48-2.03-7.25-1.6-3.77-4.93-6.74-3.34-2.98-8.85-2.98-6.09 0-10 2.54-3.92 2.54-6.24 6.02-2.32 3.48-3.19 7.1-.87 3.63-.87 5.8Z" transform="translate(-242.74 -400.79)"></path></g><rect width="61.63" height="76.27" x="-30.82" y="-38.13" fill="none" rx="0" ry="0" transform="translate(120.6 75.66)"></rect><g transform="translate(197.1 90.75)"><linearGradient id="c" x1="-2.04" x2="2.54" y1="0" y2="0" gradientUnits="objectBoundingBox"><stop offset="0%" stop-color="#6ee2f5"></stop><stop offset="100%" stop-color="#6454f0"></stop></linearGradient><path fill="url(#c)" d="M289.5 380.92q0-5.22-.73-15.51l10.73-1.45 1.31 7.83q2.9-2.47 6.01-4.42 3.12-1.96 6.82-3.34t7.9-1.38q5.95 0 11.24 2.03t9.28 6.53q3.99 4.49 6.31 11.67 2.32 7.18 2.32 17.62 0 10.58-3.12 17.91-3.12 7.32-8.12 11.89-5 4.56-11.31 6.59-6.31 2.03-12.83 2.03-6.96-.14-14.21-1.74v31.47l-11.6 1.45Zm25.81 47.85q6.09 0 10.44-2.17 4.35-2.18 7.17-6.02 2.83-3.84 4.14-8.84 1.3-5.01 1.3-10.66 0-5.08-.94-10.15-.94-5.08-3.05-9.06-2.1-3.99-5.58-6.53t-8.55-2.54q-3.77 0-7.11 1.38-3.33 1.38-6.31 3.34-2.97 1.95-5.72 4.42v44.51q1.59.58 3.55 1.09 1.96.51 4.64.87 2.68.36 6.02.36" transform="translate(-319.73 -416.38)"></path></g><rect width="61.92" height="107.45" x="-30.96" y="-53.73" fill="none" rx="0" ry="0" transform="translate(197.6 91.25)"></rect><g transform="translate(274.38 56.45)"><linearGradient id="d" x1="-3.01" x2="1.52" y1="0" y2="0" gradientUnits="objectBoundingBox"><stop offset="0%" stop-color="#6ee2f5"></stop><stop offset="100%" stop-color="#6454f0"></stop></linearGradient><path fill="url(#d)" d="m367.65 328.43 11.6-1.3v46.11q4.35-2.9 8.63-5.08 4.28-2.17 8.77-3.84 4.5-1.67 8.7-1.67 5.95 0 9.93 1.38 3.99 1.38 6.46 4.57 2.46 3.19 3.55 8.41 1.09 5.22 1.09 13.05v46.98h-11.6v-45.68q0-4.35-.15-7.75-.14-3.41-1.23-5.8-1.09-2.4-3.34-3.7-2.24-1.31-6.3-1.31-3.77 0-8.12 1.67t-8.27 3.84q-3.91 2.18-8.12 5.08v53.65h-11.6Z" transform="translate(-397.01 -382.08)"></path></g><rect width="58.73" height="109.91" x="-29.36" y="-54.95" fill="none" rx="0" ry="0" transform="translate(274.88 56.95)"></rect><g transform="translate(349.71 92.48)"><linearGradient id="e" x1="-4.4" x2=".67" y1="0" y2="0" gradientUnits="objectBoundingBox"><stop offset="0%" stop-color="#6ee2f5"></stop><stop offset="100%" stop-color="#6454f0"></stop></linearGradient><path fill="url(#e)" d="M437.4 364.1h12.32l13.63 32.92q2.03 4.78 3.7 9.57 1.67 4.78 2.97 8.55 1.6 4.5 2.76 8.7h.14q1.31-4.2 2.9-8.7 1.31-3.77 3.05-8.55 1.74-4.79 3.62-9.57l12.62-32.92h12.18l-34.51 87q-2.03 5.37-5.3 9.28-3.26 3.92-6.3 6.53-3.63 3.04-7.54 5.22l-5.66-10.01q3.05-1.45 5.66-3.62 2.32-1.89 4.64-4.71 2.32-2.83 3.77-6.75l4.49-11.89Z" transform="translate(-472.35 -418.12)"></path></g><rect width="69.89" height="108.03" x="-34.95" y="-54.02" fill="none" rx="0" ry="0" transform="translate(350.21 92.98)"></rect><g transform="translate(414.02 74.18)"><linearGradient id="f" x1="-7.97" x2="-.02" y1="0" y2="0" gradientUnits="objectBoundingBox"><stop offset="0%" stop-color="#6ee2f5"></stop><stop offset="100%" stop-color="#6454f0"></stop></linearGradient><path fill="url(#f)" d="M519.03 375.85q0-3.34-.72-10.44l10.73-1.45 1.16 10.58h.14q2.61-3.33 5.08-5.8 2.46-2.46 5.14-4.27 2.69-1.82 5.15-1.82 3.34-.14 9.28.73l-2.61 11.16q-4.78-.87-6.67-.72-2.46 0-5.22 2.32-2.75 2.32-4.78 4.93-2.61 3.19-5.08 7.25v48.72h-11.6Z" transform="translate(-536.65 -399.81)"></path></g><rect width="36.68" height="74.46" x="-18.34" y="-37.23" fill="none" rx="0" ry="0" transform="translate(414.52 74.68)"></rect><g transform="translate(508.45 74.84)scale(1.5532)"><linearGradient id="g" x1="0" x2="1" y1="0" y2="0" gradientUnits="objectBoundingBox"><stop offset="0%" stop-color="#6ee2f5"></stop><stop offset="100%" stop-color="#6454f0"></stop></linearGradient><path fill="url(#g)" fill-rule="evenodd" d="M78.5 48.286V48c-4-5-10-4-10-4h-4.169c-.47-.635-.831-1-.831-1-4-4-8-3-8-3a3 3 0 0 0-3 3c0 1.657 2 3.031 3 3 5.25 1.344 5 7 5 7h-32c-5.522 0-10-4.478-10-10 0-5.523 4.478-10 10-10 .699 0 1.381.073 2.04.209C30.957 23.638 38.826 16 48.5 16c7.619 0 14.117 4.741 16.744 11.427A13.004 13.004 0 0 1 68.5 27c7.18 0 13 5.82 13 13 0 3.154-1.13 6.039-3 8.286M62.5 51a7 7 0 0 0-7-7v-2a9 9 0 0 1 9 9 9 9 0 0 1-9 9h-31v-2h31a7 7 0 0 0 7-7m6 24a9 9 0 0 1-9 9v-2a7 7 0 0 0 0-14h-31v-2h31a9 9 0 0 1 9 9m-30-13h31a7 7 0 0 0 0-14v-2a9 9 0 0 1 9 9 9 9 0 0 1-9 9h-31z" transform="translate(-50 -50)"></path></g></svg></svg>