<?xml version="1.0" encoding="UTF-8"?>
<!DOCTYPE svg PUBLIC "-//W3C//DTD SVG 1.1//EN" "http://www.w3.org/Graphics/SVG/1.1/DTD/svg11.dtd">
<!-- Creator: CorelDRAW -->
<svg xmlns="http://www.w3.org/2000/svg" xml:space="preserve" width="512px" height="512px" version="1.1" style="shape-rendering:geometricPrecision; text-rendering:geometricPrecision; image-rendering:optimizeQuality; fill-rule:evenodd; clip-rule:evenodd"
viewBox="0 0 512 512"
 xmlns:xlink="http://www.w3.org/1999/xlink">
 <defs>
  <style type="text/css">
   <![CDATA[
    .fil1 {fill:#1886A0}
    .fil0 {fill:#1B95B2}
    .fil2 {fill:#1EA6C6}
    .fil3 {fill:#59A7A7}
   ]]>
  </style>
 </defs>
 <g id="Layer_x0020_1">
  <metadata id="CorelCorpID_0Corel-Layer"/>
  <g id="_395861912">
   <path class="fil0" d="M458 295l-124 0c-3,0 -5,-2 -5,-5 0,-2 1,-5 4,-5l-78 -187c-1,0 -2,-1 -3,-2 -2,-2 -2,-5 0,-7 23,-22 57,-30 89,-22 30,7 53,27 64,55 15,-2 29,1 40,9 18,13 24,35 26,43 32,12 45,47 40,75 -4,22 -20,46 -53,46z"/>
   <path class="fil1" d="M359 295l-25 0c-3,0 -5,-2 -5,-5 0,-2 1,-5 4,-5l-78 -187c-1,0 -2,-1 -3,-2 -2,-2 -2,-5 0,-7 4,-3 8,-6 12,-9 9,8 17,19 23,31 1,0 2,0 2,0 25,0 45,12 57,33 4,7 8,15 10,22 26,12 42,37 41,66 -1,27 -15,50 -38,63z"/>
   <path class="fil2" d="M334 295l-280 0c-1,0 -1,0 -2,0 -31,-9 -51,-34 -52,-63 -1,-26 15,-49 40,-58 1,-5 4,-15 10,-25 11,-18 27,-28 48,-28 3,0 5,1 8,1 14,-36 48,-58 88,-58 39,0 73,22 87,58 3,0 6,-1 8,-1 21,0 38,10 49,28 5,10 8,20 9,25 26,9 41,32 40,58 -1,29 -21,54 -52,63 0,0 -1,0 -1,0z"/>
   <path class="fil0" d="M124 134c14,-35 48,-58 88,-58 15,0 30,4 43,10 1,1 1,1 2,1 -1,0 -1,-1 -1,-1 -17,-14 -39,-22 -62,-22 -40,0 -74,22 -88,58 -3,0 -5,-1 -8,-1 -21,0 -37,10 -48,28 -6,10 -9,20 -10,25 -25,9 -41,32 -40,58 1,25 15,46 38,58 -12,-12 -20,-28 -20,-46 -1,-26 15,-48 40,-58 1,-5 4,-14 10,-24 11,-18 27,-28 48,-28 3,0 5,0 8,0z"/>
  </g>
  <path class="fil3" d="M293 244l-199 0c-3,0 -5,-2 -5,-5 0,-3 2,-5 5,-5l199 0c3,0 5,2 5,5 0,3 -2,5 -5,5z"/>
  <path class="fil3" d="M346 346l-305 0c-3,0 -5,-2 -5,-5 0,-3 2,-5 5,-5l305 0c3,0 5,2 5,5 0,3 -2,5 -5,5z"/>
  <path class="fil3" d="M293 397l-199 0c-3,0 -5,-2 -5,-5 0,-3 2,-5 5,-5l199 0c3,0 5,2 5,5 0,3 -2,5 -5,5z"/>
  <path class="fil3" d="M346 448l-305 0c-3,0 -5,-2 -5,-5 0,-3 2,-5 5,-5l305 0c3,0 5,2 5,5 0,3 -2,5 -5,5z"/>
 </g>
</svg>
