<?xml version="1.0" encoding="UTF-8" standalone="no"?> <svg id="flat" xmlns="http://www.w3.org/2000/svg" viewBox="0 0 64 64"><defs><style>.cls-1{fill:#c9ebf4;}.cls-2{fill:#b5def3;}.cls-3{fill:#7d8f9f;}.cls-4{fill:#88d0ef;}</style></defs><path class="cls-1" d="M57,8H33a3,3,0,0,0,0,6h2a2,2,0,0,1,0,4H22a3,3,0,0,0,0,6H50a3,3,0,0,0,0-6H46a2,2,0,0,1,0-4H57a3,3,0,0,0,0-6Z"/><path class="cls-2" d="M40,22a10,10,0,0,0-18.238-5.664A4.966,4.966,0,0,0,15,21a5.006,5.006,0,0,0,.118,1.061A7,7,0,0,0,16,36H40a7,7,0,0,0,0-14Z"/><path class="cls-3" d="M57,39H52a5.957,5.957,0,0,0-6.808-5.939A10,10,0,0,0,26.2,39H25a5,5,0,0,0,0,10H51a4.974,4.974,0,0,0,3.977-2H57a4,4,0,0,0,0-8Z"/><path class="cls-4" d="M40,45H35a5.957,5.957,0,0,0-6.808-5.939A10,10,0,0,0,9.2,45H8A5,5,0,0,0,8,55H34a4.974,4.974,0,0,0,3.977-2H40a4,4,0,0,0,0-8Z"/></svg>