<?xml version="1.0" encoding="UTF-8"?>
<!DOCTYPE svg PUBLIC "-//W3C//DTD SVG 1.1//EN" "http://www.w3.org/Graphics/SVG/1.1/DTD/svg11.dtd">
<!-- Creator: CorelDRAW -->
<svg xmlns="http://www.w3.org/2000/svg" xml:space="preserve" width="512px" height="512px" version="1.1" style="shape-rendering:geometricPrecision; text-rendering:geometricPrecision; image-rendering:optimizeQuality; fill-rule:evenodd; clip-rule:evenodd"
viewBox="0 0 512 512"
 xmlns:xlink="http://www.w3.org/1999/xlink">
 <defs>
  <style type="text/css">
   <![CDATA[
    .fil3 {fill:#1886A0}
    .fil2 {fill:#1B95B2}
    .fil4 {fill:#1EA6C6}
    .fil1 {fill:#DA9E15}
    .fil0 {fill:#F2B017}
   ]]>
  </style>
 </defs>
 <g id="Layer_x0020_1">
  <metadata id="CorelCorpID_0Corel-Layer"/>
  <g id="_303876280">
   <path class="fil0" d="M116 265c-1,0 -2,0 -3,0 -22,-14 -36,-38 -36,-64 0,-41 34,-74 74,-74 41,0 74,33 74,74 0,7 -1,13 -2,19 -1,3 -4,4 -6,4 -3,-1 -5,-4 -4,-7l-94 39c2,1 3,4 1,7 -1,1 -2,2 -4,2z"/>
   <path class="fil1" d="M151 115c-2,0 -5,-2 -5,-5l0 -35c0,-3 3,-5 5,-5 3,0 5,2 5,5l0 35c0,3 -2,5 -5,5z"/>
   <path class="fil1" d="M277 206l-34 0c-3,0 -5,-2 -5,-5 0,-3 2,-5 5,-5l34 0c3,0 5,2 5,5 0,3 -2,5 -5,5z"/>
   <path class="fil1" d="M60 206l-35 0c-2,0 -5,-2 -5,-5 0,-3 3,-5 5,-5l35 0c3,0 5,2 5,5 0,3 -2,5 -5,5z"/>
   <path class="fil1" d="M223 135c-2,0 -3,0 -4,-1 -2,-2 -2,-6 0,-8l27 -27c2,-2 5,-2 7,0 2,2 2,6 0,8l-27 27c-1,1 -2,1 -3,1z"/>
   <path class="fil1" d="M80 135c-1,0 -3,0 -4,-1l-27 -27c-2,-2 -2,-6 0,-8 2,-2 6,-2 8,0l27 27c2,2 2,6 0,8 -1,1 -3,1 -4,1z"/>
   <g>
    <path class="fil2" d="M458 442l-124 0c-3,0 -5,-2 -5,-5 0,-3 1,-5 4,-5l-78 -187c-1,0 -2,-1 -3,-2 -2,-2 -2,-5 0,-7 23,-22 57,-31 90,-23 29,8 52,28 63,56 15,-2 29,1 40,9 18,13 25,35 26,43 32,12 45,47 40,75 -4,22 -20,46 -53,46z"/>
    <path class="fil3" d="M360 442l-26 0c-3,0 -5,-2 -5,-5 0,-3 1,-5 4,-5l-78 -187c-1,0 -2,-1 -3,-2 -2,-2 -2,-5 0,-7 4,-3 8,-7 12,-9 9,8 17,19 23,31 1,0 2,0 2,0 25,0 45,12 57,33 4,7 8,14 10,22 26,12 42,37 41,66 0,27 -15,50 -37,63z"/>
    <path class="fil4" d="M334 442l-280 0c-1,0 -1,0 -2,0 -31,-9 -51,-34 -52,-63 -1,-27 15,-49 40,-59 1,-4 4,-14 10,-24 11,-18 27,-28 48,-28 3,0 6,0 8,1 14,-36 48,-59 88,-59 39,0 73,23 87,59 3,-1 6,-1 8,-1 21,0 38,10 49,28 6,10 8,20 9,24 26,10 41,32 40,59 -1,29 -21,54 -52,63 0,0 -1,0 -1,0z"/>
    <path class="fil2" d="M124 281c14,-35 48,-58 88,-58 15,0 30,4 43,10 1,0 1,1 2,1 -1,0 -1,-1 -1,-1 -17,-14 -39,-23 -62,-23 -40,0 -74,23 -88,59 -2,-1 -5,-1 -8,-1 -21,0 -37,10 -48,28 -6,10 -9,20 -10,24 -25,10 -41,32 -40,59 1,24 15,46 38,57 -12,-11 -19,-27 -20,-45 -1,-26 15,-48 40,-58 1,-5 4,-15 10,-24 11,-19 27,-28 48,-28 3,0 6,0 8,0z"/>
   </g>
  </g>
 </g>
</svg>
