<?xml version="1.0" encoding="UTF-8"?>
<!DOCTYPE svg PUBLIC "-//W3C//DTD SVG 1.1//EN" "http://www.w3.org/Graphics/SVG/1.1/DTD/svg11.dtd">
<!-- Creator: CorelDRAW -->
<svg xmlns="http://www.w3.org/2000/svg" xml:space="preserve" width="512px" height="512px" version="1.1" style="shape-rendering:geometricPrecision; text-rendering:geometricPrecision; image-rendering:optimizeQuality; fill-rule:evenodd; clip-rule:evenodd"
viewBox="0 0 512 512"
 xmlns:xlink="http://www.w3.org/1999/xlink">
 <defs>
  <style type="text/css">
   <![CDATA[
    .fil3 {fill:black}
    .fil1 {fill:#1886A0}
    .fil0 {fill:#1B95B2}
    .fil2 {fill:#1EA6C6}
    .fil4 {fill:#81D8DF}
   ]]>
  </style>
 </defs>
 <g id="Layer_x0020_1">
  <metadata id="CorelCorpID_0Corel-Layer"/>
  <path class="fil0" d="M475 280l-183 0c-3,0 -5,-3 -5,-6 0,-2 2,-5 5,-5l0 0 16 -98c0,0 -1,-1 -1,-1 -1,-3 1,-6 4,-7 4,-1 9,-1 14,-1 10,-23 32,-37 58,-37 27,0 49,14 59,37 10,0 19,2 26,7 12,8 16,22 18,28 16,7 26,22 26,39 -1,20 -14,37 -35,43 -1,1 -1,1 -2,1z"/>
  <path class="fil1" d="M328 280l-36 0c-3,0 -5,-3 -5,-6 0,-2 2,-5 5,-5l0 0 16 -98c0,0 -1,-1 -1,-1 -1,-3 1,-6 4,-7 4,0 8,-1 12,-1l0 1c24,11 38,33 38,60 -1,24 -14,44 -33,57z"/>
  <g id="_394265168">
   <path class="fil2" d="M303 280l-252 0c0,0 -1,0 -1,-1 -28,-8 -46,-30 -47,-56 -1,-24 13,-44 36,-53 1,-4 3,-13 8,-21 10,-17 25,-26 44,-26 2,0 5,1 8,1 12,-32 42,-52 78,-52 36,0 66,20 78,52 3,0 5,-1 8,-1 18,0 33,9 43,26 6,8 8,17 9,21 23,9 36,29 36,53 -1,26 -19,48 -47,56 0,1 -1,1 -1,1z"/>
   <path class="fil0" d="M115 135c12,-32 42,-52 78,-52 14,0 28,3 39,9 1,0 1,0 2,1 -1,-1 -1,-1 -1,-1 -15,-13 -35,-20 -56,-20 -36,0 -66,20 -78,52 -3,0 -6,-1 -8,-1 -19,0 -34,9 -44,26 -5,8 -7,17 -8,21 -23,9 -37,29 -36,53 0,22 14,41 34,52 -11,-11 -18,-25 -18,-41 -1,-24 13,-44 36,-52 1,-5 3,-13 9,-22 9,-17 24,-25 43,-25 2,0 5,0 8,0z"/>
  </g>
  <path class="fil3" d="M177 379c-16,0 -29,-12 -29,-26 0,-6 7,-21 20,-46 1,-4 3,-7 4,-9 1,-2 2,-3 4,-3 2,0 4,1 5,3 1,2 2,4 4,8 13,24 21,40 21,47 0,14 -13,26 -29,26zm0 -67c-6,10 -18,36 -19,41 0,9 9,16 19,16 10,0 18,-7 18,-16 0,-6 -13,-31 -18,-41z"/>
  <g id="_394296536">
   <path class="fil4" d="M247 449c-17,0 -31,-13 -31,-29 0,-7 9,-24 23,-52 2,-3 3,-6 4,-8 1,-2 3,-3 5,-3 2,0 4,2 5,3 0,2 2,6 4,10 14,27 21,43 21,50 0,16 -13,29 -31,29z"/>
   <path class="fil4" d="M103 449c-17,0 -31,-13 -31,-29 0,-7 8,-24 23,-52 1,-3 3,-6 4,-8 1,-2 2,-3 4,-3 2,0 4,2 5,3 1,2 3,6 5,10 13,27 21,43 21,50 0,16 -14,29 -31,29z"/>
   <path class="fil4" d="M175 380c-17,0 -31,-13 -31,-29 0,-7 8,-25 23,-52 2,-3 3,-6 4,-8 1,-2 3,-3 5,-3 2,0 3,1 4,3 1,2 3,5 5,10 14,27 21,43 21,50 0,16 -14,29 -31,29z"/>
  </g>
  <g id="_394295912">
   <path class="fil4" d="M433 398c-12,0 -21,-9 -21,-20 0,-5 5,-16 15,-35 2,-2 3,-4 3,-6 1,-1 2,-2 3,-2 2,0 3,1 4,2 0,2 1,4 3,7 9,19 14,30 14,34 0,11 -9,20 -21,20z"/>
   <path class="fil4" d="M333 398c-11,0 -21,-9 -21,-20 0,-5 6,-16 16,-35 1,-2 2,-4 3,-6 0,-1 1,-2 3,-2 1,0 2,1 3,2 1,2 2,4 3,7 10,19 15,30 15,34 0,11 -10,20 -22,20z"/>
   <path class="fil4" d="M383 351c-12,0 -21,-9 -21,-20 0,-5 6,-17 16,-36 1,-2 2,-4 2,-5 1,-1 2,-2 4,-2 1,0 2,1 3,2 0,1 2,3 3,6 9,19 15,30 15,35 0,11 -10,20 -22,20z"/>
  </g>
 </g>
</svg>
