<?xml version="1.0" encoding="UTF-8" standalone="no"?> <svg width="120" height="120" viewBox="0 0 120 120" fill="none" xmlns="http://www.w3.org/2000/svg">
<path d="M78 46.9268C78 56.9083 69.9411 65 60 65C50.0589 65 42 56.9083 42 46.9268C42 39.4505 51.9589 21.335 57.0624 12.7126C58.8227 9.73856 61.1094 9.78051 62.8604 12.76C67.9385 21.4013 78 39.4642 78 46.9268Z" fill="#70BAFF"/>
<path d="M110 71.1951C110 80.4762 102.389 88 93 88C83.6112 88 76 80.4762 76 71.1951C76 64.3199 85.1997 47.7688 90.0649 39.6498C91.8284 36.7067 94.1073 36.7484 95.8626 39.6963C100.707 47.8319 110 64.3331 110 71.1951Z" fill="#027EF1"/>
<path d="M44 71.1951C44 80.4762 36.3888 88 27 88C17.6112 88 10 80.4762 10 71.1951C10 64.3199 19.1997 47.7688 24.0649 39.6498C25.8284 36.7067 28.1073 36.7484 29.8626 39.6963C34.7069 47.8319 44 64.3331 44 71.1951Z" fill="#027EF1"/>
<path d="M74 95.7317C74 103.612 67.732 110 60 110C52.268 110 46 103.612 46 95.7317C46 90.1429 52.9446 78.5325 57.0524 72.253C58.8319 69.5326 61.1147 69.571 62.8897 72.2944C66.9889 78.5834 74 90.1552 74 95.7317Z" fill="#70BAFF"/>
</svg>
