<?xml version="1.0" encoding="UTF-8"?>
<!DOCTYPE svg PUBLIC "-//W3C//DTD SVG 1.1//EN" "http://www.w3.org/Graphics/SVG/1.1/DTD/svg11.dtd">
<!-- Creator: CorelDRAW -->
<svg xmlns="http://www.w3.org/2000/svg" xml:space="preserve" width="512px" height="512px" version="1.1" style="shape-rendering:geometricPrecision; text-rendering:geometricPrecision; image-rendering:optimizeQuality; fill-rule:evenodd; clip-rule:evenodd"
viewBox="0 0 512 512"
 xmlns:xlink="http://www.w3.org/1999/xlink">
 <defs>
  <style type="text/css">
   <![CDATA[
    .fil2 {fill:#E6BA17}
    .fil1 {fill:#E6BA17;fill-rule:nonzero}
    .fil0 {fill:#FFCF1A;fill-rule:nonzero}
   ]]>
  </style>
 </defs>
 <g id="Layer_x0020_1">
  <metadata id="CorelCorpID_0Corel-Layer"/>
  <path class="fil0" d="M256 394c-76,0 -137,-62 -137,-138 0,-37 14,-71 40,-97 26,-26 60,-40 97,-40 37,0 71,14 97,40 26,26 40,60 40,97 0,76 -62,138 -137,138z"/>
  <path class="fil0" d="M240 114c0,0 -1,0 -1,0 -4,-1 -7,-4 -6,-8l16 -100c1,-4 4,-6 7,-6 3,0 6,3 7,6l15 100c0,4 -2,7 -6,8 0,0 -32,0 -32,0z"/>
  <path class="fil1" d="M166 264c-4,0 -7,-3 -7,-7 0,-57 46,-103 103,-103 4,0 7,3 7,7 0,4 -3,7 -7,7 -49,0 -89,40 -89,89 0,4 -3,7 -7,7z"/>
  <path class="fil1" d="M298 110c-1,0 -1,0 -2,0 -3,-1 -6,-5 -5,-9l12 -47c1,-3 5,-6 9,-5 3,1 6,5 5,9l-12 47c-1,3 -4,5 -7,5z"/>
  <path class="fil1" d="M369 151c-2,0 -4,-1 -5,-2 -3,-3 -3,-7 0,-10l34 -34c3,-3 7,-3 10,0 3,3 3,7 0,10l-34 34c-1,1 -3,2 -5,2z"/>
  <path class="fil1" d="M410 223c-3,0 -6,-2 -7,-5 -1,-4 1,-8 5,-9l47 -13c4,-1 8,1 9,5 1,4 -1,8 -5,9l-47 13c-1,0 -1,0 -2,0z"/>
  <path class="fil1" d="M456 318c-1,0 -1,0 -2,0l-47 -13c-4,-1 -6,-5 -5,-9 1,-4 5,-6 9,-5l47 13c3,1 6,5 5,9 -1,3 -4,5 -7,5z"/>
  <path class="fil1" d="M402 410c-2,0 -4,-1 -5,-2l-34 -34c-3,-3 -3,-7 0,-10 3,-3 7,-3 10,0l34 34c3,3 3,7 0,10 -1,1 -3,2 -5,2z"/>
  <path class="fil1" d="M309 464c-3,0 -6,-2 -7,-5l-13 -47c-1,-4 1,-8 5,-9 4,-1 8,1 9,5l13 47c1,4 -1,8 -5,9 -1,0 -1,0 -2,0z"/>
  <path class="fil1" d="M201 463c-1,0 -1,0 -2,0 -4,-1 -6,-5 -5,-9l13 -46c1,-4 5,-6 9,-5 4,1 6,5 5,9l-13 46c-1,3 -4,5 -7,5z"/>
  <path class="fil1" d="M109 409c-2,0 -4,-1 -5,-2 -3,-3 -3,-7 0,-10l34 -34c3,-3 7,-3 10,0 3,3 3,7 0,10l-34 34c-1,1 -3,2 -5,2z"/>
  <path class="fil1" d="M55 316c-3,0 -6,-2 -7,-5 -1,-4 1,-8 5,-9l47 -12c4,-1 8,1 9,5 1,4 -2,8 -5,9l-47 12c-1,0 -1,0 -2,0z"/>
  <path class="fil1" d="M102 221c-1,0 -1,0 -2,0l-46 -12c-4,-1 -6,-5 -5,-9 1,-3 5,-6 9,-5l46 12c3,1 6,5 5,9 -1,3 -4,5 -7,5z"/>
  <path class="fil1" d="M144 150c-2,0 -4,-1 -5,-2l-34 -34c-3,-3 -3,-7 0,-10 3,-3 7,-3 10,0l34 34c3,3 3,7 0,10 -1,1 -3,2 -5,2z"/>
  <path class="fil1" d="M216 109c-3,0 -6,-2 -7,-5l-13 -47c-1,-4 1,-8 5,-9 4,-1 8,1 9,5l13 47c1,4 -1,8 -5,9 -1,0 -1,0 -2,0z"/>
  <path class="fil0" d="M313 125c0,0 0,0 -1,-1 -3,-2 -3,-6 -1,-9l64 -79c2,-3 6,-3 9,-2 3,2 4,6 3,9l-37 94c-1,4 -5,5 -9,4 0,0 -28,-16 -28,-16z"/>
  <path class="fil0" d="M371 171c0,0 0,0 0,-1 -1,-3 0,-7 4,-9l95 -36c3,-1 6,0 8,3 2,3 1,7 -2,9l-79 63c-3,3 -7,2 -10,-1 0,0 -16,-28 -16,-28z"/>
  <path class="fil0" d="M398 240c0,0 0,0 1,-1 0,-3 4,-6 8,-5l100 16c3,0 5,3 5,6 0,4 -2,7 -6,7l-100 15c-3,1 -7,-2 -8,-6 0,0 0,-31 0,-32z"/>
  <path class="fil0" d="M387 314c1,0 1,-1 1,-1 2,-3 7,-3 10,-1l78 64c3,2 4,6 2,9 -2,3 -5,4 -9,3l-94 -37c-3,-2 -5,-6 -4,-9 0,-1 16,-28 16,-28z"/>
  <path class="fil0" d="M341 372c0,0 1,0 1,-1 4,-1 8,1 9,4l36 95c1,3 0,7 -3,9 -3,1 -7,1 -9,-2l-63 -79c-2,-3 -2,-8 1,-10 1,0 28,-16 28,-16z"/>
  <path class="fil0" d="M272 399c0,0 1,0 1,0 4,1 6,4 6,8l-16 100c-1,3 -4,6 -7,6 -4,0 -6,-3 -7,-6l-15 -100c-1,-4 2,-7 6,-8 0,0 32,0 32,0z"/>
  <path class="fil0" d="M199 388c0,0 0,0 0,1 3,2 4,6 1,9l-63 79c-3,3 -6,3 -9,2 -3,-2 -5,-6 -3,-9l37 -94c1,-4 5,-5 9,-4 0,0 27,16 28,16z"/>
  <path class="fil0" d="M141 342c0,0 0,0 0,1 1,3 0,7 -4,9l-95 36c-3,1 -6,0 -8,-3 -2,-3 -1,-7 2,-9l79 -63c3,-3 7,-2 10,1 0,0 15,28 16,28z"/>
  <path class="fil0" d="M113 272c0,1 0,1 0,2 0,3 -4,6 -8,5l-100 -16c-3,0 -6,-3 -6,-7 0,-3 3,-6 6,-6l100 -15c4,-1 8,2 8,5 0,1 0,32 0,32z"/>
  <path class="fil0" d="M125 199c-1,0 -1,1 -1,1 -3,3 -7,3 -10,1l-79 -64c-2,-2 -3,-6 -1,-9 2,-3 5,-4 8,-3l95 37c3,2 5,6 4,9 -1,1 -16,28 -16,28z"/>
  <path class="fil0" d="M171 141c-1,0 -1,0 -1,1 -4,1 -8,-1 -9,-4l-36 -95c-2,-3 0,-7 3,-9 3,-1 6,-1 9,2l63 79c2,3 2,8 -1,10 -1,0 -28,16 -28,16z"/>
  <path class="fil2" d="M256 394c75,0 137,-62 137,-138 0,-37 -14,-71 -40,-97 -4,-4 -8,-7 -12,-10 13,21 21,46 21,72 0,76 -62,138 -137,138 -32,0 -62,-11 -85,-30 24,39 67,65 116,65z"/>
 </g>
</svg>
